<mxfile host="app.diagrams.net" agent="Mozilla/5.0 (Windows NT 10.0; Win64; x64) AppleWebKit/537.36 (KHTML, like Gecko) Chrome/131.0.0.0 Safari/537.36" version="25.0.1">
  <diagram name="Page-1" id="KcYTpL-ff8ruV8fbdGf-">
    <mxGraphModel dx="989" dy="509" grid="1" gridSize="10" guides="1" tooltips="1" connect="1" arrows="1" fold="1" page="1" pageScale="1" pageWidth="827" pageHeight="1169" math="0" shadow="0">
      <root>
        <mxCell id="0" />
        <mxCell id="1" parent="0" />
        <mxCell id="IBvGRsdB8FfSR0HGuIBo-6" style="edgeStyle=orthogonalEdgeStyle;rounded=0;orthogonalLoop=1;jettySize=auto;html=1;exitX=0.5;exitY=0;exitDx=0;exitDy=0;entryX=0;entryY=0.5;entryDx=0;entryDy=0;" edge="1" parent="1" source="DNsbt84PIh2vWpGsc9Ce-1" target="DNsbt84PIh2vWpGsc9Ce-5">
          <mxGeometry relative="1" as="geometry" />
        </mxCell>
        <mxCell id="DNsbt84PIh2vWpGsc9Ce-1" value="Tela de Menu" style="rounded=1;whiteSpace=wrap;html=1;" parent="1" vertex="1">
          <mxGeometry x="180" y="410" width="120" height="60" as="geometry" />
        </mxCell>
        <mxCell id="DNsbt84PIh2vWpGsc9Ce-2" value="Tela de Game Over" style="rounded=1;whiteSpace=wrap;html=1;" parent="1" vertex="1">
          <mxGeometry x="420" y="460" width="120" height="60" as="geometry" />
        </mxCell>
        <mxCell id="DNsbt84PIh2vWpGsc9Ce-8" style="edgeStyle=orthogonalEdgeStyle;rounded=0;orthogonalLoop=1;jettySize=auto;html=1;entryX=0.5;entryY=0;entryDx=0;entryDy=0;" parent="1" source="DNsbt84PIh2vWpGsc9Ce-5" target="DNsbt84PIh2vWpGsc9Ce-6" edge="1">
          <mxGeometry relative="1" as="geometry" />
        </mxCell>
        <mxCell id="DNsbt84PIh2vWpGsc9Ce-5" value="Tela do oceano (gameplay)" style="rounded=1;whiteSpace=wrap;html=1;" parent="1" vertex="1">
          <mxGeometry x="340" y="210" width="120" height="60" as="geometry" />
        </mxCell>
        <mxCell id="DNsbt84PIh2vWpGsc9Ce-12" style="edgeStyle=orthogonalEdgeStyle;rounded=0;orthogonalLoop=1;jettySize=auto;html=1;" parent="1" source="DNsbt84PIh2vWpGsc9Ce-6" target="DNsbt84PIh2vWpGsc9Ce-2" edge="1">
          <mxGeometry relative="1" as="geometry" />
        </mxCell>
        <mxCell id="DNsbt84PIh2vWpGsc9Ce-13" style="edgeStyle=orthogonalEdgeStyle;rounded=0;orthogonalLoop=1;jettySize=auto;html=1;entryX=0.5;entryY=0;entryDx=0;entryDy=0;" parent="1" source="DNsbt84PIh2vWpGsc9Ce-6" target="DNsbt84PIh2vWpGsc9Ce-10" edge="1">
          <mxGeometry relative="1" as="geometry" />
        </mxCell>
        <mxCell id="IBvGRsdB8FfSR0HGuIBo-4" style="edgeStyle=orthogonalEdgeStyle;rounded=0;orthogonalLoop=1;jettySize=auto;html=1;entryX=0.5;entryY=1;entryDx=0;entryDy=0;" edge="1" parent="1" source="DNsbt84PIh2vWpGsc9Ce-6" target="DNsbt84PIh2vWpGsc9Ce-5">
          <mxGeometry relative="1" as="geometry" />
        </mxCell>
        <mxCell id="DNsbt84PIh2vWpGsc9Ce-6" value="&lt;div&gt;Tela do Surto&lt;/div&gt;&lt;div&gt;&amp;nbsp;(gameplay)&lt;/div&gt;" style="rounded=1;whiteSpace=wrap;html=1;" parent="1" vertex="1">
          <mxGeometry x="540" y="320" width="120" height="60" as="geometry" />
        </mxCell>
        <mxCell id="IBvGRsdB8FfSR0HGuIBo-5" style="edgeStyle=orthogonalEdgeStyle;rounded=0;orthogonalLoop=1;jettySize=auto;html=1;" edge="1" parent="1" source="DNsbt84PIh2vWpGsc9Ce-10">
          <mxGeometry relative="1" as="geometry">
            <mxPoint x="479.9999999999998" y="570" as="targetPoint" />
            <Array as="points">
              <mxPoint x="720" y="570" />
            </Array>
          </mxGeometry>
        </mxCell>
        <mxCell id="DNsbt84PIh2vWpGsc9Ce-10" value="Tela de VitÃ³ria" style="rounded=1;whiteSpace=wrap;html=1;" parent="1" vertex="1">
          <mxGeometry x="660" y="460" width="120" height="60" as="geometry" />
        </mxCell>
        <mxCell id="DNsbt84PIh2vWpGsc9Ce-22" style="edgeStyle=orthogonalEdgeStyle;rounded=0;orthogonalLoop=1;jettySize=auto;html=1;exitX=0.5;exitY=1;exitDx=0;exitDy=0;entryX=0.5;entryY=1;entryDx=0;entryDy=0;" parent="1" source="DNsbt84PIh2vWpGsc9Ce-2" target="DNsbt84PIh2vWpGsc9Ce-1" edge="1">
          <mxGeometry relative="1" as="geometry">
            <mxPoint x="604.9999999999998" y="610" as="sourcePoint" />
            <Array as="points">
              <mxPoint x="480" y="570" />
              <mxPoint x="240" y="570" />
            </Array>
          </mxGeometry>
        </mxCell>
      </root>
    </mxGraphModel>
  </diagram>
</mxfile>
